<?xml version="1.0" encoding="utf-8"?>
<!-- Generator: Adobe Illustrator 18.1.1, SVG Export Plug-In . SVG Version: 6.00 Build 0)  -->
<svg version="1.1" id="Layer_1" xmlns="http://www.w3.org/2000/svg" xmlns:xlink="http://www.w3.org/1999/xlink" x="0px" y="0px"
	 viewBox="0 0 1920 1080" enable-background="new 0 0 1920 1080" xml:space="preserve">
<g>
	<path d="M1576.333,108.424L1576.333,108.424h-276.378V61.654c0-34.015-29.764-63.78-63.78-63.78H687.671
		c-34.015,0-63.779,29.764-63.779,63.78v46.771H347.514l0,0c-34.015,0-63.78,29.764-63.78,63.78v846.143
		c0,34.015,29.764,63.78,63.78,63.78l0,0H1572.08l0,0c34.015,0,63.78-29.764,63.78-63.78V172.204
		C1640.113,133.935,1610.349,108.424,1576.333,108.424z M968.3,912.045c-178.583,0-323.149-144.568-323.149-323.149
		c0-178.583,144.568-323.149,323.149-323.149c178.583,0,323.149,144.568,323.149,323.149
		C1291.451,771.73,1146.883,912.045,968.3,912.045z M1555.074,355.038H1308.46V189.21h246.614V355.038z"/>
	<circle cx="964.049" cy="588.896" r="157.323"/>
</g>
</svg>
