<?xml version="1.0" encoding="utf-8"?>
<!-- Generator: Adobe Illustrator 18.1.0, SVG Export Plug-In . SVG Version: 6.00 Build 0)  -->
<!DOCTYPE svg PUBLIC "-//W3C//DTD SVG 1.1//EN" "http://www.w3.org/Graphics/SVG/1.1/DTD/svg11.dtd">
<svg version="1.1" id="Layer_1" xmlns="http://www.w3.org/2000/svg" xmlns:xlink="http://www.w3.org/1999/xlink" x="0px" y="0px"
	 viewBox="0 0 792 612" enable-background="new 0 0 792 612" xml:space="preserve">
<g>
	<path d="M436,513.4l-10.8,1.8l2.2,13.6l11.2-1.8c2.6-0.4,4.6-1.3,5.7-2.9c1.1-1.3,1.5-3.1,1.3-5.1
		C444.8,514.3,441.5,512.6,436,513.4z"/>
	<path d="M310.2,116.4c4.2-2,7-4.8,8.6-8.6c1.3-3.7,1.1-7.9-0.7-11.9c-2.9-6.2-7.7-9.5-13.6-9.5c-2.4,0-4.8,0.4-7,1.5l-7.5,3.5
		l13,28.4L310.2,116.4z"/>
	<path d="M202.2,178.8c-1.3-0.9-2.6-1.1-3.7-1.1c-3.1,0-5.3,2.6-6.6,4.8l-5.7,9.5l11.9,7l5.7-9.7C206.6,184.8,205.9,181,202.2,178.8
		z"/>
	<path d="M607.6,200.4c1.1,0,2.2-0.2,3.3-0.9c2-1.1,3.1-2.6,3.5-4.4c0.2-1.8-0.2-4-1.8-6.4l-5.5-9.5l-11.9,6.8l5.7,9.7
		C602.8,198.9,605,200.4,607.6,200.4z"/>
	<path d="M612.5,89.5C554.6,31.9,477.8,0,396,0S237.4,31.9,179.5,89.5C121.9,147.4,90,224.2,90,306s31.9,158.6,89.5,216.5
		C237.4,580.3,314.2,612,396,612s158.6-31.9,216.5-89.5C670.3,464.6,702,387.8,702,306S670.1,147.4,612.5,89.5z M624.6,183
		c3.5,6.2,4.8,12.3,3.3,17.6c-1.1,4.6-4.4,8.4-9,11.2c-7.5,4.2-14.7,3.7-21.1-0.9l-10.6,22.2l-8.6-14.7l9.5-19.1l-4-6.8l-15.4,8.8
		l-7.3-12.5l49.9-28.6L624.6,183z M593.3,137.5l-9,9.5l-21.6-20.5l-6.2,6.6l19.1,17.8l-9,9.5l-19.1-17.8l-6.4,6.8l22,20.7l-9,9.5
		l-32.3-30.4l39.6-42L593.3,137.5z M485.5,64.7l13.4,6.4l2.9,26.4L524,83.2l13.4,6.4l-24.9,51.9l-13-6.2l14.5-30.4l-21.8,13
		l-1.3-0.7l-3.3-24.9l-14.5,30.1l-12.8-6.2L485.5,64.7z M459.8,227.2c-8.4-0.7-13.9,2.6-21.6-1.5c4.2-5.9,11.2-3.5,17.2-6.2
		C458.7,220.4,460,223.1,459.8,227.2z M450.3,253c-5.7-4-15.4-4.4-16.9-12.1c6.6-1.8,11.9,2.9,18.3,4.6
		C452.1,249,450.8,250.3,450.3,253z M455.6,205.7c-5.9-0.4-11.7,2.2-16.1,6.2c-3.1,0.7-2.2-2.2-4.6-2.2c2.6-9.7,14.3-11.4,21.8-9.2
		C457.2,202.8,454.7,202.6,455.6,205.7z M428.6,194.5c-0.9-7.5,10.6-16.9,19.6-14.7C444.6,187.6,437.4,191.8,428.6,194.5z
		 M412.7,51.3l43.6,5.5l-1.8,13L425,66l-1.1,9l26,3.3l-1.8,13L422.4,88l-1.1,9.5l29.9,3.7l-1.8,13l-44-5.7L412.7,51.3z M420.9,170.5
		c-1.5,6.4-4.8,15-12.8,18c-1.3-6.8,4.8-13.9,7.3-20.5C417.3,168.7,417.1,171.4,420.9,170.5z M384.3,51.5l2,13l-29.3,4.4l1.3,9
		l25.7-4l2,13l-25.7,4l1.3,9.2l29.7-4.6l2,13l-44,6.6l-8.6-57L384.3,51.5z M388.7,190.5c-7.9-0.7-2.2-14.1-6.6-15.2
		c0-3.3,2.4-4.2,3.5-6.4c1.1,0.9,2.6,1.1,4.6,1.1C390.3,178.4,392.9,185.4,388.7,190.5z M374.9,192.5c-1.3,2.6-1.3,6.8-6.8,5.3
		c0.7-9.9-13.9-4.6-11-18.5C368.1,178.8,365.4,191.4,374.9,192.5z M338.4,194c4.8,5.5,17.2,4.2,16.9,14.3
		c-9.2-1.8-12.1-4.6-20.5-5.7c0.2-1.3-0.2-2-1.1-2.2C335.1,198,336.2,195.6,338.4,194z M334.2,246.6c2.4-8.4,9.9-4.8,18.3-7.3
		c-0.2,1.3,0.2,2,1.1,2.2c-3.1,5.3-10.8,6.2-16.1,9.5C338.6,247.7,333.7,249.5,334.2,246.6z M328.7,228.3c0.4-2.9,2.9-3.7,3.5-6.4
		c9.2,4.2,15.2-4.8,20.5,1.3C348,230.8,334.8,232.3,328.7,228.3z M291.7,76.1c4.6-2.2,9.5-3.1,14.1-3.1c11.2,0,20.9,6.2,25.5,16.7
		c7,15.4,0.2,31.7-15.8,38.9l-20.7,9.5L271,85.4L291.7,76.1z M245.1,103l8.8,9.7l-22,20l6.2,6.6l19.4-17.6l8.8,9.7l-19.4,17.6l6.4,7
		l22.2-20.2l8.8,9.7l-33,29.9l-38.7-42.9L245.1,103z M202.9,441.1c-27.5-39.8-42-86.5-42-135.1c0-24,3.5-47.5,10.6-70.2l8.8,2.6
		c-6.8,21.8-10.1,44.4-10.1,67.5c0,46.6,14.1,91.5,40.5,129.8L202.9,441.1z M167.7,197.5l13.4-22.7c3.7-6.2,8.4-10.1,13.9-11.4
		c4.6-1.1,9.5-0.2,14.1,2.4c7.3,4.4,10.6,11,9.7,18.9l24.6-1.5l-8.6,14.5l-21.3,1.1l-4,6.8l15.2,9l-7.3,12.3L167.7,197.5z
		 M266.6,475.4c-0.4-6.2-2.2-10.3-5.7-13.6c-2.9-2.6-6.2-4-9.9-4c-4.4,0-8.8,2-12.1,5.5c-3.1,3.3-4.8,7.3-5.1,11.4
		c-0.2,4.2,1.5,7.9,4.6,10.8c4.2,4,8.4,4.8,14.3,5.1h1.1l0.2,13.2H253c-0.9,0-1.8,0-2.9,0c-8.4,0-15-2.6-21.3-8.8
		c-5.9-5.5-9.2-13-9.5-20.7c-0.2-7.7,2.9-15.2,8.4-21.1c5.9-6.2,13.6-9.7,21.8-9.7c7.5,0,15,3.1,20.7,8.6c6.8,6.4,10.1,13.2,10.3,22
		v1.1l-13.9,1.3L266.6,475.4z M312,546.2l-13-6.4l9.7-20l-18.3-8.8l-9.7,20l-13-6.4L293,473l13,6.4l-9.7,19.8l18.3,8.8l9.7-19.8
		l13,6.4L312,546.2z M393.1,537c-2.2,14.5-10.6,22.7-23.8,22.7c-1.8,0-3.3-0.2-5.1-0.4c-15.8-2.2-23.5-12.8-21.1-29l4.6-32.6l14.3,2
		l-4.6,32.1c-1.1,8.1,2,13,9,14.1c6.8,1.1,11.4-2.6,12.5-10.6l4.6-32.6l14.3,2L393.1,537z M408.8,441.1h-24.4l0.4-57.4l-2.2-52.1
		l1.1-45.3h-70.6v-18.7l28.4,1.5l41.4-2.2l2-19.1l-1.3-34.8l4.4-1.8h17.6v56.1l24.2,2.2l49.1-1.1v19.4l-71.9-0.7l1.8,85.6v68.4
		H408.8z M451.9,555.9l-14.5-15.6l-7.7,1.3l2.9,17.6l-14.3,2.2l-9.2-57l26.2-4.2c7-1.1,13.2,0,17.6,3.1c3.7,2.6,6.4,7,7.3,12.5
		c1.3,8.4-1.5,15.2-8.4,19.4l16.9,17.8L451.9,555.9z M529.8,516.1c-2.9,9.5-7.9,15.2-16.7,19.4c-4.2,2-8.6,3.1-13.2,3.1
		c-11.2,0-21.3-6.6-26.4-16.9c-7.5-15.4-1.3-32.6,14.1-40c5.1-2.4,9.7-3.5,14.3-3.5c3.3,0,6.4,0.7,9.9,1.8l0.9,0.4l-3.7,13.4
		l-1.1-0.2c-5.9-1.8-10.3-1.5-14.7,0.4c-7.7,3.7-10.6,12.8-6.6,21.1c2.9,6.2,8.4,9.9,14.3,9.9c2.2,0,4.2-0.4,6.4-1.5
		c5.3-2.6,7.5-6.2,9.7-11.7l0.4-0.9l12.3,4.4L529.8,516.1z M580.6,485.5l-15.2-16.3l-14.7,13.9l15.2,16.3l-10.6,9.9l-39.4-42
		l10.6-9.9l15,16.1l14.7-13.9l-15-16.1l10.6-9.9l39.4,42L580.6,485.5z M591.1,437.8l-7.7-5.1c25.1-37.6,38.3-81.4,38.3-126.7
		c0-19.8-2.6-39.4-7.5-58.3l9-2.4c5.3,19.8,7.9,40.3,7.9,60.7C631.2,353.3,617.3,398.8,591.1,437.8z"/>
</g>
</svg>
